<svg width="135" height="32" viewBox="0 0 135 32" fill="none" xmlns="http://www.w3.org/2000/svg">
<path fill-rule="evenodd" clip-rule="evenodd" d="M29.2884 20.4182C29.7499 19.0293 29.9998 17.5438 29.9998 16C29.9998 8.26806 23.7319 2.00008 15.9999 2.00008C8.26798 2.00008 2 8.26806 2 16C2 17.5744 2.25987 19.088 2.73906 20.5005C3.09861 20.5088 3.43836 20.5246 3.74422 20.539C4.1999 20.5603 4.55678 20.5768 4.8465 20.571L4.85764 20.5707L4.9685 18.3288L4.96959 18.3067L4.97155 18.2847L5.09066 16.9465L5.0947 16.9011L5.1024 16.8562L5.23684 16.0725C5.376 15.2613 5.76653 14.5144 6.35326 13.9372C6.851 13.4475 7.44688 13.1183 8.07693 12.9487C7.43026 12.6087 6.98926 11.9304 6.98926 11.1491C6.98926 10.027 7.8989 9.11737 9.021 9.11737C10.1431 9.11737 11.0527 10.027 11.0527 11.1491C11.0527 11.9091 10.6355 12.5717 10.0175 12.9201C10.5584 13.0484 11.0773 13.2921 11.5345 13.6506C11.7371 13.3464 11.9714 13.0622 12.2347 12.8031C13.0209 12.0296 13.9873 11.55 14.9979 11.3626C14.1354 10.9827 13.5332 10.1204 13.5332 9.11741C13.5332 7.76315 14.631 6.6653 15.9853 6.6653C17.3396 6.6653 18.4374 7.76315 18.4374 9.11741C18.4374 10.1214 17.834 10.9845 16.9701 11.3638C17.9716 11.5504 18.9301 12.0227 19.7133 12.7789C19.9844 13.0407 20.2261 13.3293 20.4354 13.6391C20.8836 13.2519 21.3992 12.9818 21.9412 12.8296C21.3295 12.4794 20.9173 11.8204 20.9173 11.065C20.9173 9.94295 21.827 9.0333 22.9491 9.0333C24.0712 9.0333 24.9808 9.94295 24.9808 11.065C24.9808 11.8041 24.5862 12.4511 23.9961 12.8066C24.6416 12.9728 25.2529 13.3056 25.7617 13.8061C26.3485 14.3833 26.739 15.1303 26.8782 15.9415L27.0126 16.7252L27.0206 16.7717L27.0246 16.8187L27.1858 18.6893L27.1866 18.6993L27.1873 18.7094L27.3044 20.4304C27.337 20.4326 27.3723 20.4346 27.4104 20.4364C27.7961 20.4543 28.2307 20.4435 28.7617 20.4304C28.9274 20.4263 29.1025 20.422 29.2884 20.4182ZM28.3028 22.6866C27.9281 22.6925 27.586 22.6933 27.3064 22.6803C26.9334 22.663 26.476 22.6195 26.0838 22.4527C25.8728 22.3629 25.6172 22.2115 25.4138 21.9497C25.2432 21.7301 25.1474 21.4816 25.1142 21.2295L25.1073 21.23L24.9468 18.872L24.7906 17.0585L24.6642 16.3213C24.6046 15.9742 24.4375 15.6545 24.1864 15.4075C23.5405 14.7721 22.4925 14.7669 21.833 15.4036C21.6016 15.6271 21.4381 15.9122 21.3619 16.2213L21.4801 16.916L21.4824 16.93L21.4845 16.9441L21.7168 18.5553L21.7173 18.5587L21.8892 19.7777L21.9002 19.8558V19.9346V21.1257H21.9004C21.9004 21.6008 21.7303 22.0667 21.3626 22.4051C21.0107 22.7289 20.5693 22.8509 20.1747 22.8361C19.3976 22.807 18.5481 22.2065 18.5333 21.1537H18.5331V19.9907V19.9124L18.5439 19.8348L18.7541 18.3355L18.7541 18.3355L18.7553 18.327L18.9865 16.7647L18.9883 16.7527L18.9903 16.7407L19.081 16.2079L19.0664 16.122C18.9549 15.4666 18.6331 14.8586 18.1529 14.3948C16.9386 13.2223 15.0059 13.2279 13.8102 14.4043C13.3861 14.8216 13.0918 15.3511 12.9606 15.9291C12.9724 15.9842 12.9831 16.0396 12.9926 16.0953L13.1246 16.8717L13.1314 16.9113L13.1353 16.9513L13.2876 18.5165L13.4604 19.8436L13.4698 19.9158V19.9886V21.2518H13.4722C13.4722 21.7247 13.3041 22.1899 12.938 22.5288C12.587 22.8538 12.1455 22.9772 11.7497 22.9623C10.968 22.9328 10.1268 22.3267 10.1121 21.2798H10.1047V19.9486V19.8724L10.115 19.7969L10.2831 18.5639L10.2831 18.5638L10.5057 16.9316L10.5083 16.9124L10.5115 16.8934L10.6538 16.0641C10.5653 15.867 10.4393 15.6866 10.2819 15.5347C9.62251 14.898 8.57449 14.9031 7.92862 15.5385C7.67752 15.7855 7.51039 16.1052 7.45084 16.4524L7.32411 17.1911L7.21101 18.4618L7.08736 20.9622V21.2427H7.07764C7.06269 21.5177 6.97921 21.8038 6.79469 22.0616C6.59679 22.3381 6.33952 22.5026 6.11592 22.6007C5.70919 22.7791 5.24297 22.8098 4.89175 22.8169C4.54388 22.8239 4.14601 22.8065 3.75287 22.7882C6.14194 27.0893 10.731 29.9999 15.9999 29.9999C21.3102 29.9999 25.9299 27.0434 28.3028 22.6866ZM15.9853 8.81264C15.817 8.81264 15.6805 8.94909 15.6805 9.11741C15.6805 9.28573 15.817 9.42218 15.9853 9.42218C16.1536 9.42218 16.2901 9.28573 16.2901 9.11741C16.2901 8.94909 16.1536 8.81264 15.9853 8.81264ZM22.9491 10.8096C22.808 10.8096 22.6936 10.924 22.6936 11.065C22.6936 11.2061 22.808 11.3205 22.9491 11.3205C23.0901 11.3205 23.2045 11.2061 23.2045 11.065C23.2045 10.924 23.0901 10.8096 22.9491 10.8096ZM27.3471 21.0237H27.3448L27.3369 20.9082C27.3439 20.9486 27.3471 20.9875 27.3471 21.0237ZM4.84102 21.1507V21.0613C4.83587 21.0944 4.83379 21.1247 4.83379 21.1507H4.84102ZM8.76556 11.1491C8.76556 11.008 8.87993 10.8937 9.021 10.8937C9.16208 10.8937 9.27644 11.008 9.27644 11.1491C9.27644 11.2902 9.16208 11.4046 9.021 11.4046C8.87993 11.4046 8.76556 11.2902 8.76556 11.1491Z" fill="url(#paint0_linear_1_116)"/>
<path d="M38.4233 9.90909L41.108 19.1392H41.2102L43.8949 9.90909H47.9091L43.5881 23H38.7301L34.4091 9.90909H38.4233ZM52.7031 23.179C51.6378 23.179 50.7259 22.968 49.9673 22.5462C49.2088 22.12 48.6271 21.5277 48.2223 20.7692C47.8175 20.0064 47.6151 19.1222 47.6151 18.1165C47.6151 17.1108 47.8175 16.2287 48.2223 15.4702C48.6271 14.7074 49.2088 14.1151 49.9673 13.6932C50.7259 13.267 51.6378 13.054 52.7031 13.054C53.7685 13.054 54.6804 13.267 55.4389 13.6932C56.1974 14.1151 56.7791 14.7074 57.1839 15.4702C57.5888 16.2287 57.7912 17.1108 57.7912 18.1165C57.7912 19.1222 57.5888 20.0064 57.1839 20.7692C56.7791 21.5277 56.1974 22.12 55.4389 22.5462C54.6804 22.968 53.7685 23.179 52.7031 23.179ZM52.7287 20.571C53.027 20.571 53.2848 20.4709 53.5021 20.2706C53.7195 20.0703 53.8878 19.7848 54.0071 19.4141C54.1264 19.0433 54.1861 18.6023 54.1861 18.0909C54.1861 17.5753 54.1264 17.1342 54.0071 16.7678C53.8878 16.397 53.7195 16.1115 53.5021 15.9112C53.2848 15.7109 53.027 15.6108 52.7287 15.6108C52.4134 15.6108 52.1428 15.7109 51.9169 15.9112C51.6911 16.1115 51.5185 16.397 51.3991 16.7678C51.2798 17.1342 51.2202 17.5753 51.2202 18.0909C51.2202 18.6023 51.2798 19.0433 51.3991 19.4141C51.5185 19.7848 51.6911 20.0703 51.9169 20.2706C52.1428 20.4709 52.4134 20.571 52.7287 20.571ZM63.9531 23.179C62.8878 23.179 61.9759 22.968 61.2173 22.5462C60.4588 22.12 59.8771 21.5277 59.4723 20.7692C59.0675 20.0064 58.8651 19.1222 58.8651 18.1165C58.8651 17.1108 59.0675 16.2287 59.4723 15.4702C59.8771 14.7074 60.4588 14.1151 61.2173 13.6932C61.9759 13.267 62.8878 13.054 63.9531 13.054C64.9162 13.054 65.7493 13.2287 66.4524 13.5781C67.1598 13.9233 67.7074 14.4134 68.0952 15.0483C68.483 15.679 68.679 16.4205 68.6832 17.2727H65.4105C65.3636 16.7571 65.2145 16.3651 64.9631 16.0966C64.7159 15.8239 64.3963 15.6875 64.0043 15.6875C63.6974 15.6875 63.429 15.777 63.1989 15.956C62.9688 16.1307 62.7898 16.397 62.6619 16.755C62.5341 17.1087 62.4702 17.554 62.4702 18.0909C62.4702 18.6278 62.5341 19.0753 62.6619 19.4332C62.7898 19.7869 62.9688 20.0533 63.1989 20.2322C63.429 20.407 63.6974 20.4943 64.0043 20.4943C64.2642 20.4943 64.4943 20.4347 64.6946 20.3153C64.8949 20.1918 65.0568 20.0128 65.1804 19.7784C65.3082 19.5398 65.3849 19.25 65.4105 18.9091H68.6832C68.6705 19.7741 68.4723 20.5284 68.0888 21.1719C67.7053 21.8111 67.1619 22.3054 66.4588 22.6548C65.7599 23.0043 64.9247 23.179 63.9531 23.179ZM74.8436 23.179C73.7953 23.179 72.8919 22.9787 72.1333 22.5781C71.3791 22.1733 70.7974 21.5937 70.3883 20.8395C69.9835 20.081 69.7811 19.1733 69.7811 18.1165C69.7811 17.1023 69.9856 16.2159 70.3947 15.4574C70.8038 14.6989 71.3812 14.1087 72.127 13.6868C72.8727 13.2649 73.7527 13.054 74.7669 13.054C75.5083 13.054 76.1795 13.169 76.7804 13.3991C77.3812 13.6293 77.8947 13.9638 78.3208 14.4027C78.747 14.8374 79.0751 15.3658 79.3052 15.9879C79.5353 16.6101 79.6504 17.3111 79.6504 18.0909V18.9091H70.8805V16.9659H76.4032C76.399 16.6847 76.3265 16.4375 76.1859 16.2244C76.0495 16.0071 75.8642 15.8388 75.6298 15.7195C75.3997 15.5959 75.1376 15.5341 74.8436 15.5341C74.5581 15.5341 74.296 15.5959 74.0574 15.7195C73.8187 15.8388 73.627 16.005 73.4821 16.218C73.3414 16.4311 73.2669 16.6804 73.2583 16.9659V19.0625C73.2583 19.3778 73.3244 19.6591 73.4565 19.9062C73.5886 20.1534 73.7782 20.3473 74.0254 20.4879C74.2725 20.6286 74.5708 20.6989 74.9203 20.6989C75.1632 20.6989 75.3848 20.6648 75.5851 20.5966C75.7896 20.5284 75.9643 20.4304 76.1092 20.3026C76.2541 20.1705 76.3606 20.0128 76.4288 19.8295H79.6504C79.5396 20.5114 79.2775 21.1037 78.8642 21.6065C78.4508 22.1051 77.9032 22.4929 77.2214 22.7699C76.5439 23.0426 75.7512 23.179 74.8436 23.179Z" fill="#43BDCE"/>
<path d="M90.8466 13.1818C90.7741 12.4531 90.4524 11.8736 89.8814 11.4432C89.3104 11.0128 88.5923 10.7976 87.7273 10.7976C87.1179 10.7976 86.581 10.902 86.1165 11.1108C85.6563 11.3196 85.294 11.6094 85.0298 11.9801C84.7699 12.3466 84.6399 12.7642 84.6399 13.233C84.6399 13.5781 84.7145 13.8807 84.8636 14.1406C85.0128 14.4006 85.2131 14.6243 85.4645 14.8118C85.7202 14.995 86.0014 15.1527 86.3082 15.2848C86.6193 15.4169 86.9325 15.5277 87.2479 15.6172L88.6286 16.0135C89.0462 16.1286 89.4638 16.2756 89.8814 16.4545C90.299 16.6335 90.6804 16.8594 91.0256 17.1321C91.375 17.4006 91.6541 17.7308 91.8629 18.1229C92.076 18.5107 92.1825 18.9773 92.1825 19.5227C92.1825 20.2216 92.0014 20.8501 91.6392 21.4084C91.277 21.9666 90.7571 22.4098 90.0795 22.7379C89.402 23.0618 88.5902 23.2237 87.6442 23.2237C86.7536 23.2237 85.9801 23.0767 85.3239 22.7827C84.6676 22.4844 84.152 22.0732 83.777 21.549C83.402 21.0249 83.1911 20.4176 83.1442 19.7273H84.3714C84.4141 20.2429 84.5845 20.6797 84.8828 21.0376C85.1811 21.3956 85.5689 21.6683 86.0462 21.8558C86.5234 22.0391 87.0561 22.1307 87.6442 22.1307C88.2962 22.1307 88.8757 22.022 89.3828 21.8047C89.8942 21.5831 90.2947 21.2763 90.5845 20.8842C90.8786 20.4879 91.0256 20.0277 91.0256 19.5036C91.0256 19.0604 90.9105 18.6896 90.6804 18.3913C90.4503 18.0888 90.1286 17.8352 89.7152 17.6307C89.3061 17.4261 88.831 17.245 88.2898 17.0874L86.7237 16.6271C85.6967 16.3203 84.8999 15.8963 84.3331 15.3551C83.7663 14.8139 83.483 14.1236 83.483 13.2841C83.483 12.581 83.6705 11.9631 84.0455 11.4304C84.4247 10.8935 84.9361 10.4759 85.5795 10.1776C86.2273 9.875 86.9538 9.72372 87.7592 9.72372C88.5732 9.72372 89.2933 9.87287 89.9197 10.1712C90.5462 10.4695 91.0426 10.8807 91.4091 11.4048C91.7798 11.9247 91.978 12.517 92.0036 13.1818H90.8466ZM94.8224 26.6818V13.1818H95.9283V15.0547H96.0625C96.1989 14.7607 96.3864 14.4602 96.625 14.1534C96.8636 13.8423 97.179 13.5803 97.571 13.3672C97.9673 13.1541 98.4659 13.0476 99.0668 13.0476C99.8764 13.0476 100.584 13.2607 101.189 13.6868C101.798 14.1087 102.271 14.701 102.608 15.4638C102.949 16.2223 103.119 17.1065 103.119 18.1165C103.119 19.1307 102.949 20.0192 102.608 20.782C102.271 21.5447 101.798 22.1392 101.189 22.5653C100.584 22.9915 99.8807 23.2045 99.0795 23.2045C98.4872 23.2045 97.9908 23.098 97.5902 22.8849C97.1939 22.6719 96.8722 22.4098 96.625 22.0987C96.3821 21.7834 96.1946 21.4766 96.0625 21.1783H95.9602V26.6818H94.8224ZM95.9474 18.0973C95.9474 18.8899 96.0646 19.593 96.299 20.2067C96.5376 20.8161 96.8786 21.2955 97.3217 21.6449C97.7692 21.9901 98.3104 22.1626 98.9453 22.1626C99.5973 22.1626 100.147 21.9837 100.594 21.6257C101.046 21.2635 101.389 20.7756 101.624 20.1619C101.862 19.5483 101.982 18.8601 101.982 18.0973C101.982 17.343 101.864 16.6634 101.63 16.0582C101.4 15.4531 101.059 14.9737 100.607 14.62C100.156 14.2621 99.6016 14.0831 98.9453 14.0831C98.3061 14.0831 97.7628 14.2557 97.3153 14.6009C96.8679 14.9418 96.527 15.4148 96.2926 16.0199C96.0625 16.6207 95.9474 17.3132 95.9474 18.0973ZM108.358 23.2237C107.765 23.2237 107.224 23.1087 106.734 22.8786C106.244 22.6442 105.854 22.3075 105.564 21.8686C105.275 21.4254 105.13 20.8885 105.13 20.2578C105.13 19.772 105.221 19.3629 105.404 19.0305C105.588 18.6982 105.848 18.4254 106.184 18.2124C106.521 17.9993 106.919 17.831 107.38 17.7074C107.84 17.5838 108.347 17.4879 108.901 17.4197C109.451 17.3516 109.915 17.2919 110.294 17.2408C110.678 17.1896 110.97 17.1087 111.17 16.9979C111.37 16.8871 111.471 16.7081 111.471 16.4609V16.2308C111.471 15.5618 111.27 15.0355 110.87 14.652C110.473 14.2642 109.902 14.0703 109.157 14.0703C108.449 14.0703 107.872 14.2259 107.424 14.5369C106.981 14.848 106.67 15.2145 106.491 15.6364L105.411 15.2464C105.632 14.7095 105.939 14.2812 106.331 13.9616C106.723 13.6378 107.162 13.4055 107.648 13.2649C108.134 13.12 108.626 13.0476 109.125 13.0476C109.5 13.0476 109.89 13.0966 110.294 13.1946C110.703 13.2926 111.083 13.4631 111.432 13.706C111.782 13.9446 112.065 14.2791 112.282 14.7095C112.5 15.1357 112.608 15.6768 112.608 16.3331V23H111.471V21.4467H111.4C111.264 21.7365 111.061 22.0178 110.793 22.2905C110.525 22.5632 110.188 22.7869 109.783 22.9616C109.378 23.1364 108.903 23.2237 108.358 23.2237ZM108.511 22.1818C109.116 22.1818 109.64 22.0476 110.083 21.7791C110.527 21.5107 110.868 21.1548 111.106 20.7116C111.349 20.2642 111.471 19.772 111.471 19.2351V17.8161C111.385 17.897 111.243 17.9695 111.042 18.0334C110.846 18.0973 110.618 18.1548 110.358 18.206C110.103 18.2528 109.847 18.2933 109.591 18.3274C109.336 18.3615 109.105 18.3913 108.901 18.4169C108.347 18.4851 107.874 18.5916 107.482 18.7365C107.09 18.8814 106.789 19.0817 106.581 19.3374C106.372 19.5888 106.267 19.9126 106.267 20.3089C106.267 20.9055 106.48 21.3679 106.907 21.696C107.333 22.0199 107.868 22.1818 108.511 22.1818ZM119.47 23.2045C118.592 23.2045 117.827 22.9851 117.175 22.5462C116.528 22.1072 116.025 21.5064 115.667 20.7436C115.309 19.9808 115.13 19.1115 115.13 18.1357C115.13 17.1513 115.311 16.2756 115.673 15.5085C116.04 14.7415 116.547 14.1406 117.195 13.706C117.842 13.267 118.594 13.0476 119.451 13.0476C120.107 13.0476 120.702 13.1754 121.234 13.4311C121.767 13.6825 122.206 14.0384 122.551 14.4986C122.901 14.9545 123.12 15.4872 123.21 16.0966H122.059C121.94 15.5426 121.652 15.0696 121.196 14.6776C120.744 14.2812 120.169 14.0831 119.47 14.0831C118.844 14.0831 118.29 14.2536 117.808 14.5945C117.327 14.9311 116.95 15.402 116.677 16.0071C116.408 16.608 116.274 17.3047 116.274 18.0973C116.274 18.8942 116.406 19.5994 116.67 20.2131C116.935 20.8224 117.305 21.2997 117.783 21.6449C118.264 21.9901 118.827 22.1626 119.47 22.1626C119.905 22.1626 120.301 22.0817 120.659 21.9197C121.021 21.7536 121.324 21.5192 121.567 21.2166C121.814 20.9141 121.98 20.554 122.065 20.1364H123.216C123.131 20.7287 122.92 21.2571 122.583 21.7216C122.251 22.1818 121.818 22.544 121.286 22.8082C120.757 23.0724 120.152 23.2045 119.47 23.2045ZM129.624 23.2045C128.708 23.2045 127.915 22.9915 127.246 22.5653C126.577 22.1349 126.059 21.5405 125.693 20.782C125.331 20.0192 125.15 19.1413 125.15 18.1484C125.15 17.1598 125.331 16.282 125.693 15.5149C126.059 14.7436 126.564 14.1406 127.208 13.706C127.855 13.267 128.603 13.0476 129.451 13.0476C129.984 13.0476 130.498 13.1456 130.992 13.3416C131.486 13.5334 131.929 13.8295 132.321 14.2301C132.718 14.6264 133.031 15.1271 133.261 15.7322C133.491 16.3331 133.606 17.0447 133.606 17.8672V18.4297H125.936V17.4261H132.443C132.443 16.7955 132.315 16.2287 132.059 15.7259C131.808 15.2187 131.456 14.8182 131.005 14.5241C130.557 14.2301 130.039 14.0831 129.451 14.0831C128.829 14.0831 128.282 14.2493 127.809 14.5817C127.336 14.9141 126.965 15.353 126.696 15.8984C126.432 16.4439 126.298 17.0405 126.294 17.6882V18.2891C126.294 19.0689 126.428 19.7507 126.696 20.3345C126.969 20.9141 127.355 21.3636 127.853 21.6832C128.352 22.0028 128.942 22.1626 129.624 22.1626C130.088 22.1626 130.495 22.0902 130.845 21.9453C131.199 21.8004 131.495 21.6065 131.733 21.3636C131.976 21.1165 132.159 20.8459 132.283 20.5518L133.363 20.9034C133.214 21.3168 132.969 21.6982 132.628 22.0476C132.292 22.397 131.87 22.6783 131.363 22.8913C130.86 23.1001 130.28 23.2045 129.624 23.2045Z" fill="white"/>
<defs>
<linearGradient id="paint0_linear_1_116" x1="7.69527" y1="22.0583" x2="21.1597" y2="11.4392" gradientUnits="userSpaceOnUse">
<stop stop-color="#056CF2"/>
<stop offset="1" stop-color="#4ECCC6"/>
</linearGradient>
</defs>
</svg>
